<svg enable-background="new 0 0 740 830" viewBox="0 0 740 830" xmlns="http://www.w3.org/2000/svg" xmlns:xlink="http://www.w3.org/1999/xlink"><clipPath id="a"><path d="m0 0h740v830h-740z"/></clipPath><path clip-path="url(#a)" clip-rule="evenodd" d="m370.17 632.212c-23.503-38.315-125.849-30.691-155.684-112.049 52.105-44.326 63.468-104.171 22.026-156.073 8.751-15.772 21.697-29.816 38.762-42.122 22.327 19.706 71.713 22.251 94.896 9.567 23.144 12.684 72.549 10.139 94.838-9.567 17.094 12.306 30.03 26.35 38.79 42.122-41.441 51.902-30.078 111.747 22.027 156.073-29.836 81.358-132.181 73.734-155.655 112.049" fill="#ffcb05" fill-rule="evenodd"/><path clip-path="url(#a)" d="m370.171 633.211c-.348 0-.671-.18-.853-.477-9.068-14.784-30.191-22.621-54.648-31.699-36.92-13.702-82.87-30.754-101.123-80.528-.144-.393-.028-.835.291-1.106 53.41-45.437 61.799-104.709 21.893-154.687-.253-.317-.29-.755-.093-1.11 8.768-15.802 21.906-30.084 39.051-42.447.379-.274.897-.249 1.247.061 22.479 19.84 71.154 21.805 93.754 9.439.3-.164.663-.164.961 0 11.1 6.084 28.736 8.792 47.175 7.244 19.417-1.631 36.373-7.711 46.52-16.682.349-.311.868-.336 1.246-.063 17.143 12.34 30.291 26.622 39.08 42.448.198.355.161.793-.092 1.11-39.906 49.978-31.517 109.25 21.894 154.687.318.271.435.713.29 1.106-18.252 49.771-64.193 66.823-101.108 80.526-24.455 9.077-45.575 16.917-54.633 31.701-.182.297-.505.477-.852.477m-154.505-112.741c18.083 48.4 61.433 64.489 99.7 78.69 24.084 8.939 44.979 16.692 54.804 31.206 9.816-14.514 30.709-22.27 54.789-31.208 38.261-14.203 81.605-30.291 99.687-78.688-53.657-45.993-62.093-105.843-22.048-156.478-8.532-15.137-21.155-28.842-37.533-40.749-23.116 19.722-71.763 21.712-94.895 9.427-23.142 12.269-71.819 10.277-94.952-9.427-16.38 11.929-28.994 25.634-37.505 40.749 40.045 50.635 31.609 110.485-22.047 156.478" fill="#2062af"/><path clip-path="url(#a)" clip-rule="evenodd" d="m394.016 645.153 15.491 10.752c-2.224.398-4.428.758-6.663 1.088-2.951.418-5.885.767-8.828 1.068z" fill="#ffcb05" fill-rule="evenodd"/><path clip-path="url(#a)" d="m394.016 659.061c-.246 0-.485-.091-.67-.258-.21-.189-.33-.459-.33-.742v-12.908c0-.372.207-.714.536-.886.332-.172.729-.146 1.034.065l15.491 10.752c.332.23.494.638.407 1.034-.086.395-.402.7-.8.771-2.227.399-4.415.756-6.693 1.093-2.856.404-5.756.755-8.873 1.074-.035.003-.068.005-.102.005m1-11.997v9.888c2.678-.285 5.203-.597 7.687-.949 1.434-.212 2.834-.432 4.231-.666z" fill="#2062af"/><path clip-path="url(#a)" clip-rule="evenodd" d="m346.517 643.444-15.303 12.434c5.206.486 10.253.912 15.478 1.261l-.155-13.685c-.02 0-.02-.01-.02-.01" fill="#ffcb05" fill-rule="evenodd"/><path clip-path="url(#a)" d="m346.692 658.139c-.022 0-.045-.001-.067-.002-4.75-.318-9.676-.719-15.504-1.263-.405-.038-.746-.318-.864-.706-.118-.389.011-.81.326-1.067l15.304-12.433c.3-.244.712-.291 1.06-.127.006.003.012.005.018.009.334.159.567.497.572.892l.155 13.686c.003.279-.11.546-.313.738-.186.176-.432.273-.687.273m-12.943-3.033c4.348.394 8.21.704 11.931.962l-.12-10.558z" fill="#2062af"/><path clip-path="url(#a)" clip-rule="evenodd" d="m331.214 655.88-7.848 44.326-.786 5.254c1.146.232 2.273.445 3.389.65 31.371 4.623 60.545 4.448 91.848-.525l-1.108-7.186-7.294-42.513c-20.278 3.672-40.994 2.674-61.545 1.344v-.04c-5.477-.33-11.004-.787-16.656-1.31" fill="#ffcb05" fill-rule="evenodd"/><path clip-path="url(#a)" d="m370.259 710.45c-14.632 0-29.281-1.117-44.435-3.35-1.157-.212-2.291-.426-3.443-.66-.521-.106-.869-.602-.79-1.129l.787-5.253 7.852-44.353c.09-.512.552-.875 1.077-.821 6.461.598 11.743 1.014 16.624 1.308.097.006.191.026.279.057 20.851 1.346 41.207 2.242 61.028-1.348.259-.047.532.013.751.165.219.154.367.388.412.651l7.294 42.513 1.11 7.203c.084.543-.288 1.053-.831 1.139-16.281 2.587-31.988 3.878-47.715 3.878m-46.549-5.785c.821.161 1.633.313 2.44.462 30.871 4.549 59.675 4.433 90.526-.375l-.955-6.2-7.121-41.506c-19.808 3.438-40.066 2.522-60.794 1.181-.095-.005-.185-.025-.27-.055-4.593-.28-9.547-.667-15.497-1.212l-7.687 43.421z" fill="#2062af"/><path clip-path="url(#a)" clip-rule="evenodd" d="m394.016 645.153c74.87-12.441 125.216-49.635 153.069-109.967l19.668 23.766 35.857-8.992c-21.192 76.191-113.167 131.111-186.94 142.377l-6.117-36.401c-.126.039-14.41-9.928-15.537-10.783" fill="#ffcb05" fill-rule="evenodd"/><path clip-path="url(#a)" d="m415.669 693.337c-.48 0-.903-.347-.985-.834l-6.047-35.987c-.967-.584-2.881-1.915-7.048-4.815-3.543-2.465-7.57-5.29-8.178-5.751-.318-.242-.461-.649-.366-1.037.096-.388.413-.681.807-.746 36.877-6.128 68.417-18.526 93.744-36.849 24.994-18.082 44.704-42.491 58.581-72.551.145-.312.439-.528.779-.572.338-.047.68.088.9.354l19.265 23.28 35.246-8.839c.343-.088.709.017.958.271.25.255.343.623.249.966-12.491 44.906-47.211 77.036-74.139 96.084-33.987 24.042-75.398 41.178-113.613 47.014-.052.008-.103.012-.153.012m-5.698-38.309c.036.017.072.035.107.057.245.151.414.401.461.685l5.954 35.427c37.648-5.931 78.333-22.854 111.788-46.518 26.329-18.625 60.174-49.855 72.892-93.328l-34.177 8.571c-.375.094-.768-.037-1.013-.332l-18.659-22.547c-13.986 29.716-33.68 53.899-58.556 71.896-25.033 18.11-56.049 30.485-92.215 36.796 3.974 2.802 12.569 8.782 13.418 9.293" fill="#2062af"/><path clip-path="url(#a)" clip-rule="evenodd" d="m346.537 643.454c-75.22-12.324-124.681-49.615-152.583-110.113l-19.697 23.765-35.837-8.992c21.201 76.238 112.883 131.151 186.666 142.35l6.128-34.586c.195.019 14.118-11.403 15.323-12.424" fill="#ffcb05" fill-rule="evenodd"/><path clip-path="url(#a)" d="m325.086 691.464c-.05 0-.1-.004-.151-.012-38.187-5.796-79.549-22.911-113.479-46.958-26.859-19.034-61.499-51.159-74-96.112-.096-.343-.002-.711.247-.966s.614-.359.959-.271l35.227 8.839 19.294-23.281c.219-.264.561-.398.899-.353.341.044.635.26.779.572 28.425 61.63 78.091 97.463 151.837 109.545.385.063.697.345.802.72.104.376-.02.778-.317 1.03-.636.539-4.556 3.761-8.055 6.614-4.291 3.498-6.119 4.989-7 5.614l-6.058 34.194c-.086.482-.506.825-.984.825m-185.229-141.959c12.727 43.52 46.495 74.746 72.756 93.357 33.399 23.669 74.039 40.573 111.659 46.463l5.957-33.623c.057-.317.258-.574.526-.714.912-.629 9.641-7.762 13.461-10.91-36.306-6.226-67.353-18.605-92.304-36.808-24.57-17.926-44.145-42.171-58.198-72.075l-18.687 22.548c-.246.296-.641.427-1.013.332z" fill="#2062af"/><path clip-path="url(#a)" clip-rule="evenodd" d="m479.021 194.517c-5.682 0-10.314 4.225-10.314 9.401 0 5.167 4.632 9.392 10.314 9.392s10.305-4.225 10.305-9.392c0-5.176-4.623-9.401-10.305-9.401" fill="#ffcb05" fill-rule="evenodd"/><path clip-path="url(#a)" d="m479.021 214.31c-6.239 0-11.314-4.662-11.314-10.392 0-5.735 5.075-10.401 11.314-10.401 6.233 0 11.305 4.666 11.305 10.401 0 5.73-5.072 10.392-11.305 10.392m0-18.793c-5.136 0-9.314 3.769-9.314 8.401 0 4.627 4.178 8.392 9.314 8.392 5.131 0 9.305-3.765 9.305-8.392 0-4.632-4.174-8.401-9.305-8.401" fill="#2062af"/><path clip-path="url(#a)" clip-rule="evenodd" d="m435.531 180.58c-5.682 0-10.314 4.234-10.314 9.401 0 5.177 4.632 9.392 10.314 9.392s10.315-4.215 10.315-9.392c0-5.167-4.633-9.401-10.315-9.401" fill="#ffcb05" fill-rule="evenodd"/><path clip-path="url(#a)" d="m435.531 200.373c-6.239 0-11.314-4.662-11.314-10.392 0-5.735 5.075-10.401 11.314-10.401s11.315 4.666 11.315 10.401c0 5.73-5.076 10.392-11.315 10.392m0-18.793c-5.136 0-9.314 3.769-9.314 8.401 0 4.627 4.178 8.392 9.314 8.392s9.315-3.765 9.315-8.392c0-4.632-4.179-8.401-9.315-8.401" fill="#2062af"/><path clip-path="url(#a)" clip-rule="evenodd" d="m391.691 173.743c-5.691 0-10.344 4.225-10.344 9.392 0 5.175 4.653 9.39 10.344 9.39 5.652 0 10.305-4.215 10.305-9.39 0-5.167-4.653-9.392-10.305-9.392" fill="#ffcb05" fill-rule="evenodd"/><path clip-path="url(#a)" d="m391.691 193.525c-6.255 0-11.344-4.661-11.344-10.39 0-5.73 5.089-10.392 11.344-10.392 6.233 0 11.305 4.662 11.305 10.392 0 5.729-5.072 10.39-11.305 10.39m0-18.782c-5.152 0-9.344 3.765-9.344 8.392 0 4.626 4.192 8.39 9.344 8.39 5.131 0 9.305-3.764 9.305-8.39 0-4.627-4.174-8.392-9.305-8.392" fill="#2062af"/><path clip-path="url(#a)" clip-rule="evenodd" d="m348.793 173.743c5.681 0 10.314 4.225 10.314 9.392 0 5.175-4.633 9.39-10.314 9.39-5.682 0-10.305-4.215-10.305-9.39-.001-5.167 4.623-9.392 10.305-9.392" fill="#ffcb05" fill-rule="evenodd"/><path clip-path="url(#a)" d="m348.793 193.525c-6.233 0-11.305-4.661-11.305-10.39 0-5.73 5.072-10.392 11.305-10.392 6.239 0 11.314 4.662 11.314 10.392 0 5.729-5.076 10.39-11.314 10.39m0-18.782c-5.131 0-9.305 3.765-9.305 8.392 0 4.626 4.174 8.39 9.305 8.39 5.136 0 9.314-3.764 9.314-8.39 0-4.627-4.179-8.392-9.314-8.392" fill="#2062af"/><path clip-path="url(#a)" clip-rule="evenodd" d="m261.461 194.517c5.652 0 10.305 4.225 10.305 9.401 0 5.167-4.653 9.392-10.305 9.392-5.682 0-10.343-4.225-10.343-9.392 0-5.176 4.661-9.401 10.343-9.401" fill="#ffcb05" fill-rule="evenodd"/><path clip-path="url(#a)" d="m261.461 214.31c-6.255 0-11.343-4.662-11.343-10.392 0-5.735 5.088-10.401 11.343-10.401 6.233 0 11.305 4.666 11.305 10.401 0 5.73-5.072 10.392-11.305 10.392m0-18.793c-5.152 0-9.343 3.769-9.343 8.401 0 4.627 4.191 8.392 9.343 8.392 5.131 0 9.305-3.765 9.305-8.392 0-4.632-4.174-8.401-9.305-8.401" fill="#2062af"/><path clip-path="url(#a)" clip-rule="evenodd" d="m304.923 180.58c5.682 0 10.343 4.234 10.343 9.401 0 5.177-4.661 9.392-10.343 9.392-5.672 0-10.304-4.215-10.304-9.392 0-5.167 4.632-9.401 10.304-9.401" fill="#ffcb05" fill-rule="evenodd"/><path clip-path="url(#a)" d="m304.923 200.373c-6.233 0-11.304-4.662-11.304-10.392 0-5.735 5.071-10.401 11.304-10.401 6.255 0 11.343 4.666 11.343 10.401 0 5.73-5.088 10.392-11.343 10.392m0-18.793c-5.13 0-9.304 3.769-9.304 8.401 0 4.627 4.174 8.392 9.304 8.392 5.152 0 9.343-3.765 9.343-8.392 0-4.632-4.191-8.401-9.343-8.401" fill="#2062af"/><path clip-path="url(#a)" clip-rule="evenodd" d="m370.236 205.774c41.762 0 78.707 11.421 111.194 26.3l7.468-12.315c-34.128-17.404-73.666-27.854-118.662-27.854-45.015 0-84.553 10.45-118.691 27.854l7.488 12.315c32.496-14.879 69.432-26.3 111.203-26.3" fill="#ffcb05" fill-rule="evenodd"/><path clip-path="url(#a)" d="m481.429 233.073c-.139 0-.281-.029-.415-.091-38.508-17.635-74.743-26.209-110.778-26.209-36.029 0-72.268 8.574-110.786 26.209-.464.211-1.009.044-1.271-.389l-7.488-12.315c-.145-.238-.184-.525-.108-.792.076-.268.26-.492.508-.618 36.395-18.556 76.482-27.964 119.145-27.964 42.655 0 82.731 9.408 119.116 27.964.248.126.432.35.508.617s.037.554-.107.792l-7.467 12.315c-.187.307-.516.481-.857.481m-228.468-12.911 6.465 10.633c38.484-17.509 74.74-26.022 110.81-26.022 36.076 0 72.327 8.513 110.801 26.021l6.447-10.631c-35.846-18.089-75.286-27.259-117.248-27.259-41.97 0-81.419 9.17-117.275 27.258" fill="#2062af"/><path clip-path="url(#a)" clip-rule="evenodd" d="m370.236 172.83c-45.569-.272-88.603 9.818-129.374 29.34l-27.874-45.929c2.195-1.106 4.429-2.184 6.653-3.233 19.366 38.44 56.961 29.388 39.441-15.413 2.68-.836 5.351-1.642 8.031-2.429 8.382 33.546 51.047 43.034 44.89-9.818 2.505-.379 5.011-.748 7.536-1.088 7.935 44.666 47.249 39.799 45.016-3.584 1.884-.048 3.787-.097 5.681-.126 1.884.029 3.778.078 5.663.126-2.235 43.383 37.08 48.25 45.034 3.584 2.515.34 5.031.709 7.508 1.088-6.12 52.852 36.517 43.364 44.898 9.818 2.7.787 5.381 1.593 8.032 2.429-17.51 44.801 20.066 53.853 39.47 15.413 2.225 1.049 4.448 2.127 6.652 3.233l-27.902 45.929c-40.742-19.522-83.776-29.612-129.355-29.34" fill="#ffcb05" fill-rule="evenodd"/><path clip-path="url(#a)" d="m240.863 203.171c-.34 0-.669-.174-.856-.482l-27.873-45.928c-.145-.239-.184-.527-.107-.795s.262-.492.511-.617c1.995-1.006 4.18-2.068 6.677-3.245.49-.229 1.076-.03 1.319.455 7.484 14.853 21.818 27.792 33.646 22.516 7.261-3.24 12.657-14.904 3.971-37.115-.101-.259-.09-.548.03-.798s.339-.439.603-.521c2.598-.81 5.231-1.607 8.048-2.434.261-.077.542-.043.779.092.236.135.407.361.473.625 4.557 18.239 18.938 28.432 29.512 26.498 10.793-1.969 15.808-15.411 13.414-35.958-.062-.535.311-1.024.844-1.105 2.511-.379 5.022-.749 7.553-1.09.526-.068 1.024.289 1.117.816 4.005 22.539 15.658 31.505 25.431 30.386 13.209-1.507 18.384-18.548 17.602-33.743-.014-.269.081-.533.264-.731.184-.198.44-.313.709-.32l.134-.004c1.844-.046 3.705-.094 5.557-.123 1.848.029 3.673.075 5.491.121l.213.006c.269.007.525.122.708.32s.279.462.265.731c-.783 15.193 4.391 32.232 17.6 33.743 9.78 1.121 21.437-7.845 25.451-30.386.094-.528.592-.883 1.118-.816 2.29.31 4.752.667 7.525 1.091.532.081.905.569.842 1.103-2.379 20.552 2.645 33.995 13.44 35.96 10.561 1.925 24.939-8.265 29.496-26.499.065-.264.236-.489.472-.625.236-.135.516-.17.778-.092 2.941.857 5.575 1.653 8.053 2.435.263.083.481.272.601.522.119.249.13.537.03.795-8.681 22.209-3.287 33.873 3.969 37.114 11.823 5.28 26.177-7.659 33.676-22.515.244-.483.829-.685 1.319-.454 2.312 1.09 4.558 2.182 6.674 3.244.25.125.436.349.513.617.077.269.039.557-.107.796l-27.902 45.928c-.267.44-.82.607-1.286.383-41.051-19.669-84.398-29.494-128.918-29.241h-.011c-44.503-.244-87.857 9.572-128.937 29.241-.139.067-.286.099-.431.099m-26.457-46.521 26.842 44.229c41.111-19.54 84.51-29.304 128.989-29.048 44.475-.239 87.888 9.507 128.97 29.048l26.868-44.228c-1.541-.766-3.144-1.545-4.785-2.324-10.706 20.551-26.057 26.935-35.832 22.572-10.431-4.658-12.513-19.776-5.402-38.668-1.882-.586-3.865-1.185-6.011-1.816-4.223 15.228-17.629 29.506-31.53 26.976-11.772-2.143-17.414-16.019-15.173-37.199-1.853-.28-3.724-.553-5.598-.812-4.405 23.124-16.907 32.28-27.474 31.078-10.341-1.183-20.259-12.403-19.415-34.808-1.545-.039-3.093-.076-4.634-.1-1.523.024-3.075.061-4.621.1.843 22.409-9.075 33.628-19.418 34.808-10.569 1.21-23.059-7.956-27.453-31.078-1.882.259-3.754.533-5.625.814 2.254 21.172-3.378 35.048-15.149 37.196-1.087.198-2.173.293-3.25.293-12.691.002-24.402-13.225-28.296-27.266-2.076.613-4.059 1.213-6.011 1.816 7.115 18.894 5.033 34.011-5.403 38.668-9.773 4.363-25.118-2.028-35.802-22.574-1.735.823-3.315 1.59-4.787 2.323" fill="#2062af"/><path clip-path="url(#a)" clip-rule="evenodd" d="m120.17 331.786h100.149l-35.531 40.504c63.095 45.669 31.112 105.181-21.349 130.019 48.191-41.849 47.443-86.852-8.295-117.519l45.024-45.014h-19.555c-16.006 0-24.939 8.341-30.201 24.499z" fill="#ffcb05" fill-rule="evenodd"/><path clip-path="url(#a)" d="m163.439 503.309c-.328 0-.647-.162-.838-.453-.272-.418-.195-.975.182-1.302 24.648-21.403 36.507-43.699 34.295-64.475-2.077-19.51-16.744-37.288-42.415-51.413-.276-.151-.464-.424-.509-.735-.044-.312.061-.626.283-.848l43.316-43.307h-17.139c-14.867 0-23.888 7.343-29.251 23.808-.109.337-.389.59-.735.667-.345.076-.706-.036-.947-.295l-30.243-32.489c-.271-.291-.343-.716-.185-1.08.16-.366.519-.601.917-.601h100.15c.392 0 .749.23.911.587s.1.777-.159 1.072l-34.811 39.682c24.466 18.014 36.269 39.622 34.15 62.547-2.491 26.943-24.157 53.205-56.544 68.539-.138.065-.284.096-.428.096m-6.65-118.749c25.551 14.352 40.161 32.418 42.278 52.307 2.109 19.813-8.044 40.851-29.426 61.164 28.052-15.319 46.525-39.171 48.778-63.54 2.076-22.458-9.756-43.686-34.217-61.391-.228-.165-.376-.419-.408-.699-.031-.28.057-.559.242-.771l34.076-38.844h-95.645l27.536 29.581c5.736-16.298 15.233-23.591 30.611-23.591h19.554c.404 0 .769.244.924.617.155.374.069.804-.217 1.09z" fill="#2062af"/><path clip-path="url(#a)" clip-rule="evenodd" d="m556.841 343.437c-7.346 0-8.326 1.324-8.326 6.584v115.37c0 5.259.98 6.584 8.326 6.584h2.699v2.697 4.41 2.793l-46.012-.006v-2.787-4.41-2.697h2.698c7.347 0 8.328-1.325 8.328-6.584v-111.574l-17.82-21.387h6.794 47.286 4.935 47.285 6.795l-17.82 21.387v111.574c0 5.259.98 6.584 8.326 6.584h2.699v2.697 4.41 2.787l-46.011.006v-2.793-4.41-2.697h2.699c7.346 0 8.326-1.325 8.326-6.584v-115.37c0-5.26-.98-6.584-8.326-6.584z" fill="#ffcb05" fill-rule="evenodd"/><path clip-path="url(#a)" d="m567.023 482.874c-.265 0-.52-.105-.707-.293-.188-.187-.293-.441-.293-.707v-9.9c0-.553.447-1 1-1h2.699c7.058 0 7.326-1.066 7.326-5.584v-115.37c0-4.517-.268-5.584-7.326-5.584h-12.881c-7.057 0-7.326 1.067-7.326 5.584v115.37c0 4.518.269 5.584 7.326 5.584h2.7c.552 0 1 .447 1 1v9.9c0 .266-.106.52-.293.707-.188.188-.442.293-.707.293l-46.012-.005c-.553 0-1-.449-1-1v-9.895c0-.553.447-1 1-1h2.697c7.06 0 7.328-1.066 7.328-5.584v-111.212l-17.589-21.108c-.248-.298-.301-.713-.136-1.065.164-.351.517-.575.905-.575h113.096c.387 0 .741.224.905.575.165.352.111.767-.137 1.065l-17.589 21.108v111.212c0 4.518.269 5.584 7.327 5.584h2.699c.552 0 1 .447 1 1v9.895c0 .551-.448 1-1 1zm1-9.9v7.9l44.012-.005v-7.895h-1.699c-8.041 0-9.327-1.801-9.327-7.584v-111.574c0-.234.082-.46.232-.64l16.454-19.746h-108.826l16.454 19.746c.149.18.231.406.231.64v111.574c0 6.538-2.215 7.584-9.328 7.584h-1.697v7.895l44.012.005v-7.9h-1.7c-8.04 0-9.326-1.801-9.326-7.584v-115.37c0-6.538 2.215-7.584 9.326-7.584h12.881c8.04 0 9.326 1.801 9.326 7.584v115.37c0 6.538-2.215 7.584-9.326 7.584z" fill="#2062af"/><path clip-path="url(#a)" d="m359.916 311.523v-2.473-3.912-2.393h-2.394c-6.514 0-7.383-1.175-7.383-5.841v-45.292c0-4.668.869-5.842 7.383-5.842h2.394v-2.393-3.913-2.473l-40.814-.004v2.477 3.913 2.393h2.393c6.516 0 7.386 1.174 7.386 5.842v16.752h-26.197v-16.752c0-4.668.87-5.842 7.385-5.842h2.394v-2.393-3.913-2.477l-40.815.004v2.473 3.913 2.393h2.394c6.515 0 7.385 1.174 7.385 5.842v45.292c0 4.666-.87 5.841-7.385 5.841h-2.394v2.393 3.912 2.473l40.815.005v-2.478-3.912-2.393h-2.394c-6.515 0-7.385-1.175-7.385-5.841v-18.812h26.197v18.812c0 4.666-.87 5.841-7.386 5.841h-2.393v2.393 3.912 2.478z" fill="#ffcb05"/><path clip-path="url(#a)" d="m318.002 312.628v-10.983h3.493c6.285 0 6.285-1.005 6.285-4.741v-17.712h-23.997v17.712c0 3.736 0 4.741 6.286 4.741h3.493v10.983l-43.014-.005v-10.978h3.493c6.285 0 6.285-1.005 6.285-4.741v-45.292c0-3.914-.211-4.742-6.285-4.742h-3.493v-10.979l43.014-.004v10.983h-3.493c-6.286 0-6.286 1.005-6.286 4.742v15.652h23.997v-15.652c0-3.737 0-4.742-6.285-4.742h-3.493v-10.983l43.014.004v10.979h-3.494c-6.284 0-6.284 1.005-6.284 4.742v45.292c0 3.736 0 4.741 6.284 4.741h3.494v10.978zm-45.254-2.205 38.614.005v-6.583h-1.293c-6.821 0-8.486-1.362-8.486-6.941v-19.912h28.397v19.912c0 5.579-1.665 6.941-8.485 6.941h-1.293v6.583l38.613-.005v-6.578h-1.293c-6.819 0-8.484-1.362-8.484-6.941v-45.292c0-5.58 1.665-6.942 8.484-6.942h1.293v-6.579l-38.613-.004v6.583h1.293c6.82 0 8.485 1.362 8.485 6.942v17.852h-28.397v-17.852c0-5.58 1.665-6.942 8.486-6.942h1.293v-6.583l-38.614.004v6.579h1.293c6.82 0 8.485 1.362 8.485 6.942v45.292c0 5.579-1.665 6.941-8.485 6.941h-1.293z" fill="#2062af"/><path clip-path="url(#a)" d="m433.004 236.949v2.516 3.912 2.393h2.778c2.711 0 5.944.37 5.944 2.136 0 .856-.782 3.366-6.028 10.565l-7.017 9.489-10.867-17.348c-.845-1.463-1.232-2.706-1.243-3.018 0-1.647 4.576-1.824 6.543-1.824h2.779v-2.393-3.912-2.477l-46.785-.005v2.482 3.912 2.393h2.778c2.489 0 5.323.453 7.49 3.814l24.565 38.326c-9.02 13.034-12.545 13.188-12.696 13.188-.508 0-1.156-.776-2.086-1.961-1.639-2.086-4.118-5.244-9.504-5.244-5.777 0-9.352 4.181-9.352 8.055 0 5.352 5.622 11.039 16.045 11.039 11.46 0 18.61-7.64 24.096-15.113l37.043-50.332c.628-.866 2.652-1.772 5.182-1.772h2.779v-2.393-3.912-2.535z" fill="#ffcb05"/><path clip-path="url(#a)" d="m396.347 314.087c-11.135 0-17.144-6.255-17.144-12.139 0-4.403 3.996-9.155 10.452-9.155 5.918 0 8.703 3.544 10.367 5.662.332.423.986 1.255 1.316 1.515.587-.197 4.004-1.699 11.28-12.086l-24.168-37.707c-1.874-2.906-4.263-3.307-6.564-3.307h-3.878v-10.987l48.984.005v10.982h-3.878c-3.311 0-5.025.468-5.424.798.083.292.416 1.251 1.075 2.393l9.991 15.947 6.057-8.191c5.532-7.591 5.813-9.588 5.813-9.911 0-.219-.822-1.036-4.844-1.036h-3.878v-11.02l34.644-.021v11.041h-3.879c-2.358 0-3.958.858-4.291 1.317l-37.048 50.338c-5.649 7.695-13.034 15.562-24.983 15.562m-6.692-19.094c-5.098 0-8.253 3.61-8.253 6.955 0 4.818 5.238 9.939 14.945 9.939 10.967 0 17.887-7.413 23.21-14.664l37.044-50.333c.946-1.305 3.443-2.22 6.068-2.22h1.679v-6.64l-30.245.018v6.622h1.679c4.674 0 7.043 1.089 7.043 3.236 0 1.759-2.099 5.532-6.238 11.213l-7.982 10.792-11.724-18.715c-.896-1.55-1.389-2.985-1.41-3.565 0-2.005 2.5-2.961 7.643-2.961h1.679v-6.582l-44.586-.005v6.587h1.679c2.621 0 5.947.491 8.415 4.317l24.961 38.946-.417.603c-8.773 12.677-12.627 13.662-13.6 13.662-1.029 0-1.792-.905-2.951-2.382-1.601-2.036-3.79-4.823-8.639-4.823" fill="#2062af"/><path clip-path="url(#a)" clip-rule="evenodd" d="m492.708 498.786-6.75-10.012-5.682-10.304-4.584-10.549-.592-1.863h-99.705v89.019h38.189v31.234h-38.189v27.01c9.315-6.887 20.455-11.566 31.361-15.957 11.587-4.467 23.27-8.703 34.838-13.267l11.683-5.002c5.779-2.739 11.344-5.584 16.889-8.672l10.537-6.819 9.781-7.828 4.536-4.349 4.302-4.692 4.049-5.031c4.234-6.139 8.168-12.324 10.937-19.152-8.129-7.159-15.142-15.364-21.6-23.766" fill="#2062af" fill-rule="evenodd"/><path clip-path="url(#a)" clip-rule="evenodd" d="m364.916 555.077v-89.02h-99.704l-.602 1.864-4.574 10.549-5.682 10.312-6.76 10.004c-6.478 8.402-13.48 16.607-21.59 23.766 2.778 6.828 6.701 13.013 10.936 19.152l4.031 5.031 4.292 4.692 4.565 4.349 9.76 7.828c5.255 3.565 10.48 6.77 16.064 9.887l11.364 5.604c15.257 6.712 30.952 12.257 46.54 18.269 10.916 4.391 22.046 9.07 31.36 15.957v-27.01h-38.217v-31.234z" fill="#ed1b35" fill-rule="evenodd"/><path clip-path="url(#a)" d="m464.741 333.637c-16.437 10.675-37.401 14.434-57.212 14.723l-7.26-.216c-8.416-.597-17.155-1.75-25.168-4.418v112.878h96.797l-2.142-10.276-1.105-11.061.103-11.127 1.345-11.139 2.583-11.11 3.862-11.012c4.177-9.559 9.041-18.876 15.497-27.354-7.157-11.381-16.523-21.235-27.3-29.888" fill="#ed1b35"/><g clip-rule="evenodd" fill-rule="evenodd"><path clip-path="url(#a)" d="m336.139 348.288h-7.284c-18.677-.787-38.062-4.603-53.504-14.655-10.79 8.653-20.123 18.481-27.272 29.864 6.45 8.469 11.306 17.793 15.482 27.33l3.855 11.004 2.584 11.101 1.35 11.13.097 11.12-1.107 11.043-2.147 10.266h96.723v-112.777c-9.139 3.049-19.22 4.176-28.777 4.574" fill="#2062af"/><path clip-path="url(#a)" d="m348.377 369.723-5.886-3.69 1.826-2.671 5.827 3.574zm-41.976-5.701-7.371-.524-18.327 10.566-2.253 6.498 2.185 2.846 27.951-17.23zm-12.052 15.646 6.128-3.827-1.855-2.437-6.002 3.71zm17.84-.757 1.322-5.896-2.176-2.855-27.107 16.889 2.661 2.943 7.1.34zm11.004 27.32 16.025-23.367-6.012-4.099-15.034 20.783-11.81-15.869-6.361 4.001 13.636 19.736-25.65 36.03 8.44 4.75 22.065-31.438 19.493 28.165c4.438 6.429 14.296 2.117 9.411-4.739zm35.216-20.794-6.536-12.344-18.443-11.518c-.068-.273-8.663 10.003-8.663 10.003l19.201 13.14z" fill="#fff"/><path clip-path="url(#a)" d="m403.852 563.177c-1.428-2.533-3.574-3.817-6.478-3.817-2.913 0-5.059 1.293-6.429 3.856-1.107 1.943-1.651 4.391-1.651 7.344 0 2.941.544 5.388 1.651 7.341 1.37 2.565 3.516 3.846 6.429 3.846 2.923 0 5.079-1.271 6.478-3.816 1.078-1.973 1.632-4.43 1.632-7.371-.001-2.934-.554-5.391-1.632-7.383m-2.098 13.035c-.902 2.203-2.35 3.31-4.38 3.31-2.001 0-3.476-1.117-4.38-3.339-.621-1.526-.923-3.401-.923-5.623 0-2.196.302-4.051.943-5.596.903-2.213 2.359-3.311 4.36-3.311 2.03 0 3.478 1.098 4.38 3.282.651 1.545.972 3.42.972 5.625-.001 2.203-.322 4.087-.972 5.652" fill="#2062af"/><path clip-path="url(#a)" d="m384.777 563.177c-1.428-2.533-3.575-3.817-6.478-3.817-2.904 0-5.05 1.293-6.43 3.856-1.097 1.943-1.65 4.391-1.65 7.344 0 2.941.553 5.388 1.65 7.341 1.38 2.565 3.526 3.846 6.43 3.846 2.933 0 5.089-1.271 6.478-3.816 1.088-1.973 1.641-4.43 1.641-7.371 0-2.934-.553-5.391-1.641-7.383m-2.098 13.035c-.903 2.203-2.35 3.31-4.38 3.31-2.029 0-3.476-1.117-4.381-3.339-.621-1.526-.941-3.401-.941-5.623 0-2.196.32-4.051.971-5.596.893-2.213 2.35-3.311 4.351-3.311 2.03 0 3.477 1.098 4.38 3.282.65 1.545.98 3.42.98 5.625 0 2.203-.33 4.087-.98 5.652" fill="#2062af"/><path clip-path="url(#a)" d="m365.46 562.925c-1.369-2.311-3.545-3.457-6.507-3.457-2.35 0-4.225.66-5.604 2.01-1.398 1.349-2.078 3.097-2.078 5.254 0 2.185.582 3.933 1.729 5.226 1.282 1.399 3.078 2.098 5.409 2.098 2.651 0 4.555-.885 5.701-2.643-.019 2.156-.447 3.963-1.223 5.401-1.03 1.875-2.603 2.796-4.73 2.796-.651 0-1.379-.127-2.127-.379-.923-.339-1.409-.757-1.409-1.242 0-.185.156-.437.408-.758.273-.31.399-.603.399-.826 0-.447-.146-.816-.495-1.127-.331-.31-.758-.464-1.224-.464-.68 0-1.205.232-1.554.689-.379.455-.554 1-.554 1.631 0 1.437.719 2.603 2.127 3.467 1.253.767 2.71 1.146 4.351 1.146 3.137 0 5.477-1.281 7.061-3.846 1.272-2.078 1.932-4.681 1.932-7.789 0-2.962-.553-5.361-1.612-7.187m-3.03 7.41c-.845 1-2.049 1.486-3.652 1.486-1.593 0-2.816-.486-3.641-1.486-.788-.892-1.157-2.088-1.157-3.603 0-1.495.369-2.69 1.157-3.575.825-1 2.048-1.504 3.641-1.504 1.603 0 2.807.504 3.652 1.504.729.885 1.107 2.08 1.107 3.575 0 1.515-.378 2.711-1.107 3.603" fill="#2062af"/><path clip-path="url(#a)" d="m339.014 577.046c0 .719-.068 1.215-.224 1.496-.204.447-.651.66-1.33.66-.156 0-.398-.019-.729-.058-.34-.049-.592-.067-.767-.067-1.049 0-1.583.445-1.583 1.33 0 .699.457 1.049 1.379 1.049.505 0 1.273-.039 2.273-.137 1-.097 1.748-.154 2.253-.154s1.282.057 2.331.154c1.02.098 1.806.137 2.302.137 1 0 1.505-.437 1.505-1.303 0-.716-.428-1.076-1.302-1.076-.203 0-.504.018-.883.067-.369.039-.67.058-.874.058-.67 0-1.098-.213-1.302-.64-.145-.272-.242-.749-.242-1.428v-13.889c0-.164.019-.494.097-.951.048-.477.077-.826.077-1.049 0-1.019-.427-1.535-1.33-1.535-.272 0-.699.029-1.253.098-.573.068-1.001.097-1.273.097-.223 0-.533-.029-.961-.097-.447-.069-.747-.098-.961-.098-.962 0-1.428.398-1.428 1.186 0 .679.427 1.019 1.243 1.019.185 0 .427-.029.757-.078.35-.039.603-.049.748-.049.651 0 1.069.215 1.302.66.107.254.175.739.175 1.467z" fill="#2062af"/></g><path clip-path="url(#a)" d="m396.597 535.313c-3.079 0-5.633-2.31-5.633-5.136 0-2.836 2.554-5.149 5.633-5.149 3.107 0 5.623 2.313 5.623 5.149 0 2.826-2.516 5.136-5.623 5.136m-.651-52.775-9.139 16.492-.145.416-.079.408v.389l.108.389.174.369.243.33.33.281.369.225.428.154.446.068.428-.019.428-.088.397-.164.35-.215.331-.301.252-.369 9.129-16.49.175-.408.048-.408v-.399l-.087-.379-.185-.369-.243-.34-.3-.281-.408-.213-.418-.156-.427-.068-.456.019-.418.088-.408.156-.35.233-.33.281zm.243-3.379.078-.398v-.409l-.098-.388-.174-.369-.253-.321-.321-.281-.408-.224-.427-.155-.418-.068-.456.019-.398.088-.428.155-.349.234-.291.291-.262.369-11.811 21.299-.145.406-.069.408v.399l.098.388.175.36.242.33.331.281.368.225.428.154.447.068.427-.019.428-.088.407-.154.379-.233.292-.293.253-.369 11.78-21.306zm3.71 7.973-6.74 12.199-.165.418-.079.396v.409l.098.388.185.36.243.33.33.281.369.225.427.154.446.068.428-.019.428-.088.398-.164.378-.223.302-.293.242-.369 6.76-12.207.174-.408.078-.399-.019-.398-.106-.389-.147-.369-.252-.33-.32-.281-.389-.223-.447-.156-.428-.059-.446.01-.427.078-.369.166-.379.233-.301.291zm-9.634 47.93c-3.099 0-5.634 2.31-5.634 5.136 0 2.846 2.535 5.149 5.634 5.149 3.107 0 5.623-2.303 5.623-5.149 0-2.826-2.516-5.136-5.623-5.136m40.965-15.085-.068.409v.398l.088.379.184.369.243.33.33.291.369.215.427.154.447.059h.427l.428-.088.408-.154.34-.244.33-.282.242-.369 9.149-16.5.166-.408.049-.398v-.399l-.098-.388-.175-.37-.253-.32-.291-.281-.408-.233-.417-.156-.428-.058-.446.019-.428.078-.408.166-.34.223-.34.281-.242.389-9.14 16.482zm-2.428-3.826 2.302 1.186 7.235-13.072-2.427-.991zm26.971-12.207 9.721 3.719-.301 6.264 3.672 1.515-.826-9.168-12.684-4.748-8.779 4.719 3.67 1.525zm-58.4 16.033c0 2.817 2.526 5.139 5.634 5.139 3.098 0 5.633-2.322 5.633-5.139 0-2.835-2.535-5.146-5.633-5.146-3.108 0-5.634 2.311-5.634 5.146m25.447-6.904 6.884-12.422-25.076-10.314-5.758 10.412zm-19.891 21.989c-3.079 0-5.613 2.31-5.613 5.136 0 2.846 2.534 5.149 5.613 5.149 3.127 0 5.653-2.303 5.653-5.149 0-2.826-2.526-5.136-5.653-5.136m72.394-17.395.077-.408-.029-.389-.097-.398-.175-.36-.252-.33-.301-.281-.398-.223-.428-.156-.428-.068-.446.019-.427.088-.398.166-.35.213-.33.291-.253.369-9.984 18.074-.175.409-.068.398.019.398.078.399.175.357.253.332.321.282.378.222.447.156.427.069.427-.02.428-.088.398-.156.37-.232.31-.291.242-.369 10.014-18.065zm7.555 3.555.079-.399-.02-.398-.108-.389-.173-.359-.253-.33-.321-.291-.378-.223-.427-.146-.428-.069-.447.02-.427.078-.398.164-.37.224-.3.291-.253.37-9.985 18.064-.183.408-.069.408v.409l.098.377.174.359.253.332.33.291.369.213.418.156.466.067.418-.01.427-.086.398-.156.379-.233.301-.291.253-.379 10.003-18.064zm-7.255-1.623-8.808 15.92 1.175.601 8.857-16.016zm-60.564 10.228c0-2.662-2.351-4.818-5.244-4.818-2.903 0-5.265 2.156-5.265 4.818 0 2.641 2.362 4.797 5.265 4.797 2.893 0 5.244-2.156 5.244-4.797m83.038 7.293-.232-.885-.37-.814-.573-.748-.728-.641-.884-.506-.941-.339-1.001-.155-.982.037-.98.205-.894.35-.796.514-.699.662-.554.785-.379.885-.174.912.048.904.204.863.398.836.554.739.718.64.884.506.943.33 1.009.154 1.001-.019.951-.203.904-.35.815-.525.68-.651.573-.797.379-.882.146-.905zm-9.683-4.545.175-.885.127-.873.019-.845-.077-.825-.098-.796-.203-.768-.302-.719-.32-.67-.428-.631-.466-.564-.554-.504-.602-.437-.68-.37-1.767-.728-9.119 16.471 1.699.865.728.281.758.195.748.096.777.02.805-.067.787-.146.807-.223.796-.312.787-.377.747-.457.748-.526.699-.582.651-.66.631-.719.574-.787.495-.826.427-.873.359-.885zm-62.614-14.336.369-.222.302-.301.253-.369 9.129-16.483.185-.406.067-.408-.02-.399-.106-.388-.146-.369-.251-.331-.322-.281-.407-.224-.418-.145-.428-.068-.456.009-.418.088-.397.155-.36.234-.32.301-.253.359-9.11 16.49-.175.418-.077.389v.408l.106.389.175.359.252.33.321.282.378.232.448.146.427.069.427-.01.428-.098zm19.095-11.344-7.488 13.51 23.182 12.033 8.557-15.461zm-29.155 28.594c-3.128 0-5.653 2.32-5.653 5.147 0 2.836 2.525 5.138 5.653 5.138 3.078 0 5.603-2.302 5.603-5.138 0-2.827-2.525-5.147-5.603-5.147m28.601-1.273-.554-.553-.475-.418-.467-.291-.427-.205-.446-.135-.486-.068-.515-.029-.534.029-.495.068-.456.125-.447.195-.457.301-.496.399-.524.523-.553.67-7.877 9.85h23.59l-7.808-9.772zm11.509 6.158-10.936-13.686-.573-.689-.554-.543-.475-.418-.467-.291-.427-.203-.446-.127-.486-.078-.515-.03-.534.03-.495.068-.456.127-.447.203-.457.291-.496.408-.524.516-.553.67-10.713 13.402-.699 1.108-.271.931.047.778.302.64.494.516.632.387.699.224.505.049 8.256-10.324.592-.709.583-.582.573-.467.573-.359.582-.242.574-.176.601-.078.632-.039.593.039.601.088.603.166.544.261.582.369.555.465.591.604.602.719 8.207 10.285h.622l.583-.049.602-.176.573-.281.427-.399.272-.523.058-.709-.33-.943z" fill="#fff"/><path clip-path="url(#a)" clip-rule="evenodd" d="m305.003 535.313-39.208 5.002 9.032-56.164c11.286-8.217 20.065-9.945 30.205-1.244zm3.904 0v-52.406c9.906-8.41 18.171-6.565 29.631 1.244l9.033 56.164z" fill="#fff" fill-rule="evenodd"/><path clip-path="url(#a)" clip-rule="evenodd" d="m346.24 487.54c-12.111-11.907-26.621-17.209-39.479-6.129-12.898-11.08-27.408-5.778-39.519 6.129l-11.46 61.476 41.267-6.244c1.903 3.039 5.156 4.574 9.712 4.633 4.554-.059 7.779-1.594 9.711-4.633l41.257 6.244zm-41.237 47.773-39.208 5.002 9.032-56.164c11.286-8.217 20.065-9.945 30.205-1.244zm3.904 0v-52.406c9.906-8.41 18.171-6.565 29.631 1.244l9.033 56.164z" fill="#2062af" fill-rule="evenodd"/><path clip-path="url(#a)" d="m418.492 403.251c-.865-1.038-1.384-2.247-1.384-3.459 0-1.557.519-2.594 1.556-3.631.865-.864 2.075-1.385 3.458-1.385 1.386 0 2.595.521 3.633 1.558.866.864 1.384 2.077 1.384 3.458 0 1.384-.518 2.594-1.559 3.631-1.035.865-2.246 1.384-3.458 1.384-1.554 0-2.593-.519-3.63-1.556m37.454 21.386c5.92 10.882 7.307 17.496 4.228 20.193-.887.794-1.968 1.198-3.282 1.198-3.417 0-8.419-2.731-15.74-8.481-5.653-4.487-11.596-10.001-17.67-16.391l-.102-.091c-.181-.162-.351-.325-.513-.488-.373.424-.751.859-1.119 1.269-6.301 7.056-12.18 12.955-17.974 18.029-7.681 6.345-13.009 9.377-16.624 9.377-1.185 0-2.186-.325-3.026-.968-3.532-2.75-2.437-9.281 3.538-21.182 2.999-6.078 6.75-12.485 11.463-19.577.089-.14.178-.261.267-.393-1.153-.241-2.3-.449-3.415-.639l-.805-.138c-8.586-1.811-12.315-3.996-12.124-7.089.05-2.963 3.949-5.087 12.26-6.683 1.313-.262 2.688-.468 4.097-.654-4.572-6.583-8.027-12.087-10.778-17.181-5.936-10.904-7.299-17.316-4.285-20.174.024-.024.05-.046.076-.068 3.258-2.696 9.475-.305 19.003 7.317 5.7 4.492 11.097 9.46 16.489 15.18.536.553 1.062 1.116 1.591 1.676.112-.118.247-.241.411-.355 6.547-7.439 12.766-13.606 18.485-18.334 9.852-8.439 16.045-11.156 19.472-8.538 3.442 2.834 2.386 9.352-3.383 21.17-3.188 6.254-7.173 12.895-11.859 19.803 1.582.259 3.018.522 4.546.883 8.313 1.795 12.031 3.96 12.031 7.011 0 2.956-3.716 4.93-12.424 6.602-1.107.212-2.312.424-3.535.637 4.32 5.979 7.918 11.711 10.701 17.079m-13.204-29.472c-.499.715-.995 1.43-1.51 2.151-.574.846-1.171 1.683-1.771 2.508 1.025 1.333 2.027 2.661 2.998 3.964l.093.125c.237.312.462.621.695.932.082-.01.17-.018.251-.028l.589-.102c1.428-.248 2.841-.494 4.128-.74 9.718-1.866 9.989-3.638 9.989-3.656 0-.081-.11-2.015-9.692-4.085-1.735-.409-3.326-.687-5.194-.983-.004 0-.009-.001-.014-.002-.192-.032-.372-.055-.562-.084m-14.56 14.505.581-.773c-2.199.038-4.456.042-6.803.042-1.441-.071-2.768-.106-4.076-.141-.53-.014-1.05-.04-1.575-.056 2.208 2.545 4.392 4.956 6.522 7.3 1.78-2.081 3.582-4.243 5.351-6.372m-6.832-26.205c-1.864 2.091-3.825 4.437-6.055 7.245 2.312-.068 4.639-.095 7.052-.005h.036c1.978 0 3.953.053 5.865.147-2.128-2.597-4.361-5.165-6.668-7.687-.032.045-.063.085-.095.13-.02.029-.041.057-.062.084-.023.03-.048.059-.073.086m17.431 12.121c.213-.297.414-.591.624-.888-1.435-.175-2.849-.319-4.256-.417.724.896 1.449 1.821 2.14 2.781.084.103.161.208.244.311.415-.58.825-1.164 1.222-1.749.008-.012.016-.023.024-.035 0-.001.001-.002.002-.003m-29.826-1.589c-1.402.095-2.755.209-4.087.336.611.812 1.24 1.643 1.894 2.495.704-.948 1.436-1.893 2.193-2.831m-2.134 7.875c-.701.902-1.445 1.895-2.23 2.977 1.639.187 3.302.348 4.991.49-.951-1.173-1.872-2.326-2.761-3.467m6.87 3.767c.094.006.184.013.279.019 1.324.071 2.648.106 3.993.141 1.331.035 2.682.071 4.073.141 3.135-.001 6.165-.007 9.077-.104.937-1.148 1.923-2.424 2.976-3.856.006-.008.013-.017.019-.025v-.001c.003-.003.005-.006.007-.009.501-.65 1.034-1.349 1.573-2.066-.25-.315-.489-.633-.744-.945-.011-.015-.023-.029-.034-.044-.012-.016-.025-.033-.037-.05-1.215-1.688-2.556-3.309-3.826-4.805-2.729-.213-5.719-.331-8.756-.331-3.244-.12-6.32-.034-9.416.091-.12.164-.238.326-.348.479-.215.302-.42.587-.624.846-.001.001-.003.002-.003.004 0 0-.001.001-.001.002h-.001c-.007.009-.015.019-.023.028-1.138 1.379-2.215 2.778-3.229 4.179 1.39 1.811 2.883 3.649 4.442 5.564zm21.436-.048c1.57-.117 3.124-.245 4.645-.385-.711-.954-1.428-1.916-2.166-2.884-.378.498-.75.983-1.107 1.445-.472.64-.926 1.242-1.372 1.824m-11.57-24.711c2.51 2.733 4.938 5.523 7.242 8.344.542.505 1.061 1.126 1.562 1.728.052.06.108.126.16.187 2.944.105 5.806.362 8.823.783 4.968-7.232 9.154-14.161 12.459-20.639 6.578-13.48 5.13-16.717 4.202-17.481-.686-.519-3.96-1.551-15.677 8.483-5.66 4.68-11.814 10.794-18.312 18.189-.109.123-.236.228-.377.309-.021.024-.038.047-.056.069-.009.011-.016.018-.026.028m-32.293-7.562c2.881 5.333 6.543 11.124 11.514 18.207 2.656-.268 5.495-.532 8.585-.67 2.911-3.733 5.378-6.726 7.705-9.339.145-.205.289-.397.434-.586-.581-.616-1.159-1.235-1.749-1.843-.006-.006-.012-.012-.019-.019-5.292-5.614-10.584-10.486-16.179-14.896-8.957-7.165-13.704-8.516-15.184-7.386-.661.685-2.035 3.805 4.893 16.532m5.216 30.218c1.451.246 2.95.501 4.495.861.076.01.152.018.228.029 1.298-1.828 2.515-3.47 3.614-4.865.039-.058.081-.116.121-.174-.07-.094-.144-.189-.212-.283-1.182-1.535-2.266-2.978-3.329-4.403-1.923.231-3.786.482-5.512.826-9.416 1.807-9.838 3.778-9.838 3.797 0 .038-.001.076-.004.114-.002.019-.032 1.919 9.693 3.972zm23.04 16.302c.438-.487.886-1.004 1.333-1.512l-.122-.135c-2.761-3.039-5.617-6.181-8.512-9.607-.006-.006-.011-.012-.017-.019v-.001h-.001c-.003-.003-.005-.006-.008-.01l-.009-.011c-3.277-.223-6.422-.521-9.51-.905-.121.176-.241.359-.361.53-.219.312-.44.625-.66.973-.002.003-.003.006-.006.01-.006.01-.012.018-.017.026-4.644 6.988-8.335 13.288-11.282 19.262-6.562 13.068-5.568 16.554-4.391 17.47.898.689 4.264 1.27 15.873-8.318 5.668-4.966 11.463-10.779 17.682-17.745.003-.003.005-.006.008-.008m33.777 6.206c-2.929-5.648-6.769-11.699-11.429-18.03-2.972.311-6.155.545-9.269.768l-2.033 2.71c-.01.013-.02.026-.03.039h-.001l-.001.002c-.009.011-.018.023-.028.034-1.868 2.247-3.774 4.534-5.654 6.728.178.187.352.377.554.559l.187.173c6.041 6.351 11.88 11.769 17.419 16.165 10.859 8.53 14.17 8.293 15.174 7.392 1.29-1.13.773-6.131-4.889-16.54" fill="#fff"/><path clip-path="url(#a)" clip-rule="evenodd" d="m372.122 697.913c-2.623.098-4.633-.68-6.08-2.33.049 1.709-.427 2.572-1.447 2.611-.981.049-1.476-.631-1.525-2.019-.029-.457 0-1.156.049-2.098.048-.951.068-1.642.068-2.088-.02-.457-.097-1.136-.195-2.031-.106-.912-.174-1.582-.174-2.039-.03-.484.097-.932.398-1.34s.67-.621 1.127-.65c.718-.03 1.204.728 1.398 2.242.282 2.09.65 3.478 1.126 4.197.952 1.494 2.729 2.194 5.333 2.098 3.029-.117 4.506-1.729 4.399-4.819-.068-1.777-1.223-2.931-3.496-3.466-4.137-.951-6.236-1.467-6.333-1.535-2.301-1.096-3.506-3.213-3.603-6.342-.077-2.438.573-4.36 1.952-5.768 1.351-1.408 3.206-2.156 5.477-2.244 2.099-.078 3.875.553 5.333 1.895-.029-1.399.35-2.108 1.146-2.137.806-.029 1.224.892 1.312 2.777.018.69 0 1.748-.03 3.176-.029 1.437-.058 2.486-.029 3.195.059 1.176-.369 1.787-1.302 1.826-.699.02-1.155-.623-1.349-1.943-.253-1.902-.554-3.146-.856-3.728-.718-1.303-2.097-1.905-4.127-1.827-2.953.108-4.38 1.631-4.303 4.555.079 1.807 1.253 2.963 3.555 3.467 2.108.447 4.234.885 6.381 1.32 2.331.992 3.525 2.992 3.633 5.975.145 4.535-2.409 8.867-7.838 9.07m16.287-34.914c-1.068.076-1.545.68-1.467 1.777l.32 5.02c.02.545-.3.855-1.029.894-.068.02-.222.04-.428.04-.222.019-.397.039-.513.039-1.127.086-1.661.738-1.574 1.961.039.931.418 1.457 1.117 1.583.184.057.845.04 2.078-.058l.398.183c.224.895.399 2.333.525 4.303.126 1.311.233 3.147.301 5.469.107 2.506.174 4.049.204 4.643.174 2.709.65 4.679 1.398 5.914.972 1.63 2.604 2.369 4.905 2.195 4.205-.32 6.109-3.711 5.681-10.17-.145-2.428-.825-3.592-2.049-3.496-1 .068-1.457.934-1.359 2.603.029.213.058.573.088 1.108.018.543.048.98.067 1.291.233 3.234-.573 4.914-2.37 5.041-1.232.098-2.059-.486-2.516-1.748-.193-.611-.34-1.826-.465-3.633l-.806-12.529c-.049-.912.029-1.426.281-1.543.175-.01.603-.01 1.273 0 .679.029 1.204.019 1.602-.01 2.059-.156 3.021-.904 2.952-2.244-.077-.951-.553-1.496-1.446-1.631-.506-.068-1.408 0-2.71.193-1.127.205-1.855.205-2.156.01-.039-.31-.069-.902-.097-1.748-.068-1.127-.117-1.875-.156-2.291-.146-2.195-.816-3.254-2.049-3.166m-211.276-66.82c.874 1.127 2.399 1.205 4.574.224l23.328-10.509c1.02-.465 1.768-.7 2.273-.7.806-.058 1.505.291 2.079 1.039.125.137.252.35.397.67.156.303.302.535.409.672.252.34.621.504 1.068.494.485 0 .874-.154 1.204-.466.398-.37.622-.825.651-1.389 0-.563-.155-1.059-.476-1.494-.476-.614-1.253-1.457-2.302-2.545s-1.826-1.944-2.302-2.545c-.349-.467-.825-1.215-1.427-2.244-.602-1.059-1.069-1.807-1.428-2.262-.767-1.01-1.67-1.068-2.651-.166-.845.758-.845 1.67-.019 2.729.174.214.426.496.767.835.359.34.602.622.776.836.525.69.486 1.33-.145 1.903-.398.359-1.01.728-1.758 1.107l-20.318 9.82 12.471-19.929c.32-.526.669-.971 1.097-1.35.825-.738 1.476-.787 1.972-.146.175.203.378.533.631.961.243.427.446.758.621.972.826 1.069 1.652 1.213 2.506.446.971-.883 1.107-1.807.35-2.768-.379-.486-.971-1.127-1.826-1.951-.855-.816-1.447-1.477-1.826-1.953-.456-.592-1.107-1.535-1.903-2.846-.797-1.32-1.448-2.252-1.904-2.846-.321-.437-.777-.689-1.301-.796-.554-.096-1.001.029-1.399.388-.903.807-.903 1.787 0 2.924.078.107.223.252.427.398.195.157.35.282.398.35.554.719.748 1.496.525 2.32-.126.477-.505 1.215-1.097 2.225l-13.646 22.639c-.651 1.097-1.068 1.904-1.195 2.408-.301.982-.175 1.836.399 2.545m30.408 4.818-7.692 9.527c-.767.971-1.301 1.553-1.602 1.748-.622.418-1.273.301-1.943-.33-.106-.097-.252-.254-.408-.505-.165-.252-.291-.418-.398-.504-.923-.875-1.748-.856-2.447.029-.68.814-.554 1.641.349 2.484.418.389 1.098.944 2.079 1.662.951.719 1.641 1.272 2.069 1.7.378.33.874.912 1.553 1.709.651.806 1.156 1.379 1.535 1.718.893.836 1.67.856 2.321.049.728-.902.602-1.797-.379-2.719-.097-.097-.252-.185-.476-.291-.194-.107-.349-.205-.446-.3-.68-.633-.846-1.352-.525-2.137.146-.359.622-1.031 1.399-2.002l10.411-12.926c.505-.594.777-1.088.855-1.467.049-.369-.175-.806-.68-1.273l-3.904-3.67c-.321-.301-.7-.428-1.156-.408-.418.019-.787.203-1.068.543-.602.758-.632 1.408-.059 1.963.126.107.36.281.661.494.301.205.524.379.67.515 1.058 1 .825 2.467-.719 4.391m6.381-9.926c-.456.582-.7 1.242-.728 1.991-.03.728.223 1.349.777 1.855.504.484 1.097.641 1.767.494.68-.154 1.233-.494 1.68-1.039.457-.592.729-1.242.748-1.971.029-.728-.214-1.339-.718-1.816-.525-.496-1.127-.699-1.797-.572-.709.125-1.263.474-1.729 1.058m.398 41.227c.952.719 1.923.689 2.904-.106l14.684-11.908c1.477-1.203 2.574-1.543 3.283-1.029.127.107.292.281.525.545.223.242.398.426.524.523 1.078.797 1.875.758 2.448-.127.631-.941.378-1.824-.748-2.67-.476-.359-1.224-.826-2.273-1.418-1.078-.582-1.825-1.058-2.311-1.408-.35-.262-.816-.719-1.389-1.379-.602-.67-1.088-1.117-1.389-1.359-.816-.613-1.515-.486-2.098.398-.602.942-.475 1.729.379 2.37.146.126.379.251.699.408.321.154.525.271.622.349.282.418.233.932-.175 1.534-.321.505-2.35 2.332-6.099 5.439-2.302 1.914-4.613 3.807-6.886 5.691.855-2.963 1.729-5.943 2.603-8.925 1.428-4.875 2.302-7.565 2.622-8.08.408-.592.855-.807 1.36-.631.126.078.301.252.524.523.243.264.427.447.544.555.855.64 1.583.484 2.214-.457.564-.883.447-1.631-.378-2.254-.33-.242-.874-.553-1.661-.922-.767-.389-1.321-.689-1.67-.961-.477-.359-1.156-.973-2.03-1.846-.874-.865-1.525-1.476-2.001-1.845-1.107-.817-1.952-.758-2.554.185-.573.883-.321 1.719.699 2.496.126.096.349.223.66.377.321.156.544.283.671.379.65.496.718 1.711.175 3.633l-5.332 18.969c-.35 1.271-.079 2.261.854 2.951m46.599 18.988 2.02-4.906c1.253-3.02 2.272-5.127 3.127-6.322 1.709-2.457 3.457-3.243 5.313-2.36.67.33 1.175.903 1.495 1.719.33.816.33 1.594.029 2.322-.184.436-.728.709-1.612.766-.874.088-1.466.506-1.768 1.264-.65 1.591-.252 2.738 1.224 3.447 2.059.99 3.701-.01 4.934-2.99.767-1.846.922-3.623.496-5.313-.477-1.855-1.526-3.185-3.177-3.973-2.049-1-4.098-.669-6.128.991.428-.991.622-1.602.641-1.856.087-.621-.272-1.107-.971-1.447l-4.225-2.029c-1.107-.534-1.855-.262-2.302.787-.281.66-.126 1.222.476 1.699.156.117.719.408 1.7.885.796.377 1.127 1 1.02 1.863-.02.408-.272 1.166-.719 2.273l-4.827 11.684c-.456 1.147-.806 1.836-1.01 2.078-.466.543-1.127.612-1.952.213-1.098-.533-1.729-.814-1.816-.824-.661-.127-1.156.223-1.486 1.058-.418.981-.097 1.729.932 2.213.467.235 1.176.496 2.127.807.942.301 1.671.555 2.127.797.573.262 1.369.728 2.418 1.389 1.059.66 1.855 1.117 2.438 1.388 1.069.526 1.826.281 2.224-.689.457-1.088.078-1.914-1.155-2.496-1.418-.69-2.225-1.203-2.371-1.545-.126-.34.127-1.291.778-2.893m157.646 10.828c.777 3.672 2.108 6.528 3.982 8.596 2.223 2.516 4.953 3.369 8.129 2.574 2.458-.613 4.36-2.041 5.74-4.283 1.369-2.264 1.748-4.721 1.194-7.4-.126-.516-.369-.905-.748-1.186-.398-.271-.825-.35-1.301-.232-.699.164-1.107 1.009-1.253 2.494-.243 2.254-.475 3.662-.728 4.263-.573 1.604-1.73 2.633-3.448 3.061-2.078.514-3.905-.234-5.458-2.244-1.175-1.553-2.05-3.574-2.574-6.051-.602-2.807-.679-5.254-.233-7.332.583-2.709 2.03-4.352 4.409-4.943.923-.243 1.826-.233 2.681.019 1.049.272 1.68.883 1.874 1.836.078.369-.126.971-.602 1.787-.496.815-.679 1.563-.524 2.242.33 1.497 1.145 2.069 2.505 1.729 1.097-.272 1.904-.99 2.428-2.147.476-1.048.574-2.183.301-3.408-.485-2.263-1.699-3.865-3.71-4.806-1.767-.875-3.749-1.039-5.904-.506-3.303.816-5.479 2.875-6.586 6.138-.922 2.768-.971 6.032-.174 9.799m71.549-33.865 5.477 11.158c.554 1.137.875 1.895.962 2.244.116.787-.214 1.399-1 1.866-.126.066-.302.134-.583.213-.272.078-.476.156-.573.222-1.078.613-1.38 1.447-.855 2.496.457.953 1.223 1.127 2.282.526.476-.291 1.194-.778 2.176-1.487.942-.718 1.7-1.224 2.204-1.506.418-.251 1.098-.562 2.02-.931.933-.379 1.622-.69 2.05-.932 1.059-.603 1.33-1.39.873-2.332-.513-1.049-1.34-1.242-2.476-.592-.125.069-.272.184-.417.36-.175.174-.33.301-.427.359-.797.455-1.477.379-2.05-.254-.253-.281-.651-1-1.223-2.127l-7.44-15.121c-.35-.709-.68-1.156-.98-1.359-.292-.194-.748-.137-1.322.203l-4.584 2.633c-.369.213-.622.543-.767 1-.126.447-.107.884.096 1.273.428.893 1.001 1.154 1.671.756.156-.086.36-.232.661-.465.301-.224.524-.379.67-.476 1.252-.719 2.457.039 3.555 2.273m-6.304-9.984c.35.679.826 1.166 1.477 1.447.621.291 1.243.242 1.874-.107.602-.35.952-.883 1.078-1.622.098-.728 0-1.427-.32-2.06-.33-.68-.807-1.174-1.428-1.455-.602-.303-1.233-.274-1.836.066-.621.36-1 .904-1.126 1.633-.145.729-.049 1.428.281 2.098m12.762-10.645c-.893.631-1.049 1.399-.505 2.33l2.535 4.215c.301.457.126.914-.476 1.322-.077.059-.203.145-.36.252-.193.137-.339.242-.446.311-.952.67-1.098 1.515-.495 2.535.476.787 1.049 1.059 1.699.797.175-.029.778-.408 1.778-1.127l.447-.059c.582.66 1.379 1.836 2.379 3.487.699 1.097 1.602 2.632 2.728 4.632 1.205 2.147 1.953 3.448 2.254 3.954 1.369 2.273 2.671 3.757 3.904 4.437 1.574.924 3.322.709 5.254-.641 3.526-2.486 3.682-6.449.399-11.867-1.224-2.039-2.351-2.711-3.351-2.002-.854.604-.854 1.604-.029 3.002.126.174.302.487.544.912.31.477.505.836.68 1.098 1.631 2.711 1.709 4.604.174 5.662-1.019.719-2.03.641-2.971-.232-.448-.428-1.127-1.408-2.03-2.934l-6.352-10.537c-.456-.758-.611-1.244-.427-1.486.126-.098.495-.321 1.098-.66.601-.331 1.049-.612 1.379-.846 1.748-1.213 2.282-2.379 1.601-3.506-.504-.795-1.155-1.039-2-.68-.476.205-1.253.739-2.282 1.594-.903.758-1.524 1.137-1.874 1.127-.195-.244-.477-.729-.875-1.477-.582-.933-.951-1.564-1.175-1.914-1.107-1.855-2.176-2.418-3.205-1.699m51.444-11.441-3.796-3.457c-2.351-2.127-3.934-3.797-4.759-4.992-1.748-2.438-1.943-4.487-.642-6.167.467-.613 1.117-.972 1.943-1.078.806-.097 1.505.116 2.079.621.349.311.427.942.252 1.866-.174.931.019 1.67.622 2.203 1.223 1.117 2.36 1.019 3.409-.32 1.447-1.866 1-3.846-1.302-5.963-1.457-1.291-2.981-1.952-4.613-1.961-1.768-.03-3.243.699-4.4 2.193-1.447 1.865-1.718 4.08-.797 6.635-.776-.699-1.281-1.098-1.475-1.196-.554-.222-1.078-.009-1.583.631l-2.973 3.836c-.757.983-.728 1.846.078 2.584.525.467 1.069.467 1.642-.009.155-.135.573-.641 1.253-1.526.553-.719 1.204-.902 1.961-.553.34.137.942.602 1.816 1.389l9.062 8.207c.903.816 1.427 1.359 1.583 1.641.34.633.253 1.322-.36 2.068-.777 1.022-1.194 1.565-1.223 1.672-.301.65-.126 1.252.524 1.836.758.689 1.506.572 2.234-.35.321-.427.777-1.088 1.301-2.002.525-.892.972-1.562 1.292-1.99.407-.506 1.03-1.215 1.904-2.127.874-.904 1.506-1.623 1.904-2.127.776-.98.776-1.826 0-2.525-.846-.758-1.671-.592-2.526.506-1.029 1.31-1.7 1.99-2.03 2.039-.349.058-1.126-.467-2.38-1.584m-190.288 85.603c-.068.932-.242 1.582-.514 1.942-.282.369-.855.506-1.729.447l-12.966-.971-.029.203c-.145 2.496.136 4.643.855 6.45.922 2.3 2.428 3.525 4.506 3.679 1.7.137 3.099-.416 4.177-1.67.495-.543 1.155-1.728 1.981-3.515.602-1.272 1.175-1.895 1.729-1.856.446.039.796.244 1.068.66.252.399.378.856.32 1.332-.068 1.389-.767 3.049-2.088 4.973-1.787 2.582-4.312 3.758-7.536 3.506-3.254-.244-5.633-1.924-7.11-5.031-1.223-2.604-1.699-5.76-1.476-9.479.253-3.711 1.146-6.769 2.68-9.168 1.875-2.855 4.419-4.168 7.683-3.914 2.972.223 5.225 1.572 6.701 4.059 1.379 2.234 1.952 5.011 1.748 8.353m-4.574-6.478c-.903-1.526-2.234-2.362-4.001-2.496-1.778-.137-3.224.562-4.351 2.078-.962 1.224-1.583 2.865-1.884 4.943l11.188.836.029-.359c.117-1.983-.204-3.653-.981-5.002m-101.248-37.655c-.428.836-.826 1.35-1.195 1.555-.407.213-.981.096-1.758-.349l-11.489-6.586-.077.175c-1.098 2.225-1.652 4.313-1.671 6.264-.029 2.506.903 4.293 2.729 5.352 1.525.875 3.001.961 4.448.31.651-.301 1.7-1.078 3.127-2.349 1.03-.905 1.787-1.215 2.283-.944.398.225.621.584.728 1.078.097.477.02.934-.204 1.371-.602 1.223-1.855 2.438-3.778 3.612-2.603 1.574-5.361 1.545-8.236-.116-2.845-1.642-4.399-4.214-4.574-7.703-.126-2.922.622-6.021 2.224-9.302 1.622-3.284 3.603-5.692 5.905-7.198 2.777-1.797 5.603-1.865 8.488-.213 2.642 1.524 4.177 3.739 4.604 6.663.427 2.64-.107 5.427-1.554 8.38m-1.748-7.916c-.253-1.785-1.156-3.146-2.71-4.039-1.573-.904-3.156-.904-4.759-.009-1.321.689-2.515 1.923-3.574 3.691l9.916 5.68.146-.33c.874-1.748 1.175-3.418.981-4.993m45.841 25.467c-.253.903-.525 1.494-.874 1.787-.35.291-.952.311-1.778.047l-12.519-3.865-.048.205c-.622 2.398-.768 4.574-.398 6.486.446 2.457 1.68 4.002 3.68 4.623 1.652.506 3.128.284 4.429-.699.573-.435 1.457-1.437 2.603-2.99.826-1.117 1.496-1.604 2.03-1.428.447.125.748.418.923.873.174.467.203.914.077 1.389-.359 1.342-1.36 2.799-3.001 4.381-2.263 2.137-4.934 2.709-8.061 1.748-3.137-.971-5.128-3.147-5.983-6.516-.67-2.826-.544-6.021.399-9.605.951-3.584 2.409-6.371 4.38-8.364 2.379-2.369 5.128-3.078 8.265-2.107 2.875.895 4.798 2.711 5.778 5.488.923 2.487.952 5.332.098 8.547m-3.235-7.353c-.592-1.7-1.718-2.826-3.428-3.34-1.69-.535-3.273-.176-4.652 1.058-1.175.971-2.098 2.438-2.777 4.399l10.77 3.342.087-.35c.505-1.904.505-3.613 0-5.109m169.156 10.888c-.884 3.157-3.011 5.389-6.333 6.711-3.263 1.282-6.205.981-8.789-.884-2.283-1.661-4.031-4.313-5.254-7.944-1.224-3.662-1.457-6.955-.699-9.879.815-3.32 2.875-5.633 6.147-6.924 3.282-1.281 6.235-.941 8.887 1.01 2.331 1.68 4.108 4.371 5.332 8.071 1.282 3.73 1.505 6.994.709 9.839m-4.06-8.517c-.903-2.682-2.078-4.721-3.555-6.11-1.855-1.718-3.904-2.117-6.206-1.214-2.301.914-3.651 2.652-4.049 5.255-.33 2.079-.03 4.477.874 7.147 2.155 6.381 5.38 8.723 9.702 7.021 2.282-.902 3.633-2.591 4.059-5.087.35-2.03.077-4.362-.825-7.012m82.96-36.684c-1.661 1.545-3.214 1.643-4.661.272.145 2.574-1.001 5.021-3.478 7.353-3.554 3.34-6.807 3.186-9.731-.476-1.981-2.438-2.428-4.914-1.379-7.42 1.273-1.981 2.555-3.953 3.875-5.934 1.35-2.137 1.428-3.953.204-5.459-.854-1.078-1.846-1.65-2.932-1.748-1.127-.098-2.176.33-3.148 1.254-.621.572-1.097 1.34-1.505 2.301-.476 1.136-.506 2.01-.019 2.584.096.078.475.232 1.155.455.447.156.787.379 1.05.672.397.494.572 1.078.523 1.748-.057.65-.31 1.203-.758 1.64-1.33 1.225-2.699.952-4.127-.836-1.378-1.699-1.718-3.669-1.097-5.884.544-1.895 1.651-3.614 3.322-5.196 2.049-1.933 4.029-2.711 5.865-2.322 1.594.34 3.352 1.68 5.226 4.012l7.333 9.109c1.223 1.516 2.127 2.002 2.728 1.457.67-.64.37-1.758-.903-3.342-1.272-1.582-1.602-2.689-.952-3.31.748-.68 1.651-.33 2.778 1.068.204.233.427.543.699.932.282.398.447.641.535.748 1.767 2.176 1.544 4.283-.603 6.322m-9.091-4.359-2.349-2.914c-.204 1-.981 2.291-2.302 3.894-1.38 1.729-2.224 2.991-2.506 3.807-.495 1.496-.175 2.992 1.049 4.486.728.914 1.583 1.428 2.554 1.526 1.001.097 1.884-.233 2.711-1.02 1.514-1.418 2.349-3.002 2.524-4.75.165-1.748-.379-3.418-1.681-5.029m37.742-30.457c-1.884 2.873-4.439 4.215-7.664 3.961-2.699-.213-5.457-1.379-8.283-3.516s-4.779-4.535-5.877-7.195c-1.33-3.196-1.049-6.236.826-9.121 1.729-2.651 3.953-4.02 6.682-4.117 2.477-.127 4.973.777 7.527 2.689.709.535 1.127 1.039 1.282 1.477.146.447-.048 1.058-.534 1.826l-7.478 11.509.185.116c1.893 1.437 3.749 2.283 5.545 2.545 2.282.339 4.059-.418 5.264-2.274.971-1.513 1.242-3.088.796-4.728-.175-.748-.776-1.953-1.748-3.643-.729-1.222-.903-2.058-.603-2.545.273-.398.622-.621 1.069-.65.447-.039.875.078 1.254.359 1.048.797 2.009 2.303 2.854 4.516 1.127 2.982.748 5.916-1.097 8.791m-9.538-14.529-.271-.215c-1.506-1.137-3.011-1.68-4.487-1.651-1.67.039-3.021.854-4.031 2.418-1.02 1.574-1.214 3.264-.593 5.1.467 1.514 1.448 2.931 2.954 4.273zm-69.995 94.691c-1.232 1.924-3.029 3.457-5.457 4.633-2.476 1.195-4.779 1.67-6.847 1.418-2.536-.321-4.332-1.739-5.391-4.284-.446-1.146-.621-2.339-.446-3.613.174-1.252.622-2.369 1.35-3.32-2.205-.088-3.73-1.088-4.526-3.031-.923-2.252-.583-4.215 1.019-5.866-1.048-.97-1.815-2.097-2.321-3.332-1-2.418-1.127-4.584-.349-6.515.748-1.924 2.175-3.401 4.302-4.41.525-.252 1.098-.475 1.699-.641-.552-1.301-.572-2.584-.125-3.797.426-1.225 1.252-2.127 2.476-2.711 1.185-.562 2.312-.621 3.409-.174 1.078.448 1.874 1.321 2.399 2.584.709 1.68.408 2.836-.845 3.438-1.136.533-1.933.203-2.457-1.01-.107-.244-.126-.545-.107-.914.087-.572.126-.873.107-.902-.233-.575-.748-.67-1.554-.282-1.097.534-1.282 1.768-.476 3.709 2.437.565 4.205 2.205 5.361 4.983.971 2.379 1.098 4.554.379 6.547-.709 1.99-2.186 3.506-4.39 4.574-.767.359-1.845.601-3.244.699-1.408.106-2.088.145-2.03.115-.699.34-.806 1.137-.252 2.41.728 1.788 2.224 2.127 4.477 1.04.35-.166.855-.428 1.456-.788.623-.349 1.049-.574 1.273-.699 5.886-2.826 9.839-1.806 11.839 3.059 1.019 2.447.767 4.808-.729 7.08m-19.569-18.813c.554 1.274 1.321 2.176 2.409 2.711 1.068.534 2.194.524 3.369-.048 1.176-.565 1.934-1.448 2.254-2.663.33-1.212.223-2.437-.301-3.718-.525-1.303-1.321-2.235-2.379-2.768-1.049-.535-2.176-.525-3.351.039-1.147.563-1.924 1.465-2.283 2.69-.321 1.232-.213 2.486.282 3.757m17.035 13.063c-.622-1.484-1.748-2.272-3.448-2.33-1.272-.069-2.729.271-4.274 1.019-1.534.748-2.728 1.67-3.631 2.768-1.126 1.457-1.379 2.924-.777 4.391.602 1.486 1.806 2.253 3.535 2.291 1.272 0 2.69-.387 4.302-1.145 1.525-.738 2.7-1.633 3.545-2.682 1.107-1.408 1.351-2.855.748-4.312" fill="#2062af" fill-rule="evenodd"/></svg>